<?xml version="1.0" encoding="utf-8"?>
<!-- Generator: Adobe Illustrator 21.1.0, SVG Export Plug-In . SVG Version: 6.00 Build 0)  -->
<svg version="1.1" id="Layer_1" xmlns="http://www.w3.org/2000/svg" xmlns:xlink="http://www.w3.org/1999/xlink" x="0px" y="0px"
	 viewBox="0 0 300 210.3" style="enable-background:new 0 0 300 210.3;" xml:space="preserve">
<style type="text/css">
	.st0{fill:#1C1C1C;}
	.st1{fill:#006C8E;}
</style>
<g>
	<path class="st0" d="M1,70.4L18,67c-1,11,1.5,18.2,6.8,18.2c4.3,0,6.1-3.3,6.1-8.2C31,60.7,1.8,50.6,1.8,25.9
		C1.8,11.2,11.3,0,26.6,0c15.5,0,23.5,11,22.9,28.4l-16.7,3.3c0.4-8.8-0.9-15.9-6.1-15.9c-3.9,0-6,3.3-6,8
		C20.8,38,50.2,49.4,50.2,75c0,15.3-10.1,26.2-24.9,26.2C10,101.2-0.3,89.8,1,70.4z"/>
	<path class="st0" d="M67.1,100.3V17.4h-14V0.9h47.8v16.5H87.1v82.9H67.1z"/>
	<path class="st0" d="M126.4,0.9v99.4h-19.9V0.9H126.4z"/>
	<path class="st0" d="M167.9,100.3c-1.2-2.2-2.1-6.3-2.7-10.7l-1.8-20.2c-0.9-5.7-2.8-8-7.3-8h-1.9v39h-19.8V0.9h24.4
		c19.8,0,27.8,10.9,27.8,28.6c0,13.7-7,21.6-14.7,23.8v0.3c5.7,1.5,10.3,6.4,11.2,15l2.2,20.5c0.4,4.3,1.3,8.2,3,11.2H167.9z
		 M156.2,17.1h-1.9v29.2h1.9c8.6,0,10.1-5.4,10.1-14.6C166.3,22.2,164.8,17.1,156.2,17.1z"/>
	<path class="st1" d="M272.4,37.1c-13,0-22.1,5.7-28,14.8c-4,6.4-6.1,14.4-6.1,23.1c0,1,0,2.1,0.1,3.1c-7.2,6.5-11.1,7.7-14.9,7.7
		c-3.4,0-5.3-1.5-5.3-4.9c0-0.7,0-1.6,0.2-2.4l4.4-25h14.9l2.6-14.8h-14.8l2.7-15.5l-20.4,2.4l-2.3,13.1h-7.9l-2.7,14.8h7.9
		L198,80.9c-0.4,1.8-0.5,3.4-0.5,4.9c0,10.9,7.5,16,18.6,16c13.1,0,19.7-6.6,25-13.8v0c4.3,8.9,13.4,13.8,24.8,13.8
		c12.8,0,22.1-5.7,27.9-14.9c4.2-6.4,6.2-14.4,6.2-23.1C300,46.9,288.5,37.1,272.4,37.1z M276.9,79.7c-2.3,4.3-5.4,7.3-10.1,7.3
		c-6.2,0-8.8-5-8.8-12.3c0-5,1.1-11.1,3.3-15.5c2.3-4.3,5.5-7.5,10.1-7.5c6.2,0,8.9,5.1,8.9,12.5C280.3,69.2,279.2,75.3,276.9,79.7z
		"/>
	<path class="st0" d="M33.1,186.5H20.7l-2.5,22.9H0L14.1,110h26.2l14.1,99.4H35.6L33.1,186.5z M22.3,171.5h9.1l-4.3-38.7h-0.6
		L22.3,171.5z"/>
	<path class="st0" d="M80.4,109.1c16.4,0,23.2,13.2,23.2,31.9l-18.5,3.1c0.3-8.8,0-17.6-5.1-17.6c-4.8,0-6.1,10.9-6.1,33.1
		c0,22.2,1.3,33.3,6.3,33.3c5.1,0,5.4-9.1,5.1-18l18.5,3.1c0,18.8-6.8,32.3-23.4,32.3c-17.6,0-26.9-16.7-26.9-50.8
		C53.4,125.6,62.7,109.1,80.4,109.1z"/>
	<path class="st0" d="M120.4,209.5v-82.9h-14V110h47.8v16.5h-13.8v82.9H120.4z"/>
	<path class="st0" d="M179.7,110v99.4h-19.9V110H179.7z"/>
	<path class="st0" d="M240.9,159.7c0,33.8-9.1,50.6-27.2,50.6c-18.3,0-27.4-16.8-27.4-50.6c0-33.6,9.1-50.6,27.4-50.6
		C231.8,109.1,240.9,126.1,240.9,159.7z M206.8,159.7c0,24.4,1.2,34.1,6.8,34.1c5.5,0,6.7-9.7,6.7-34.1c0-24.4-1.2-34.1-6.7-34.1
		C208,125.6,206.8,135.3,206.8,159.7z"/>
	<path class="st0" d="M280.3,110H298v99.4h-17.1l-15.2-54.3h-0.6v54.3h-17.7V110H266l13.7,51.4h0.6V110z"/>
</g>
</svg>
